<svg width="20" height="20" viewBox="0 0 28 28" fill="none" xmlns="http://www.w3.org/2000/svg">
<path d="M3.5 7H5.83333H24.5" stroke="white" stroke-width="2" stroke-linecap="round" stroke-linejoin="round"/>
<path d="M9.33337 7.00004V4.66671C9.33337 4.04787 9.57921 3.45438 10.0168 3.01679C10.4544 2.57921 11.0479 2.33337 11.6667 2.33337H16.3334C16.9522 2.33337 17.5457 2.57921 17.9833 3.01679C18.4209 3.45438 18.6667 4.04787 18.6667 4.66671V7.00004M22.1667 7.00004V23.3334C22.1667 23.9522 21.9209 24.5457 21.4833 24.9833C21.0457 25.4209 20.4522 25.6667 19.8334 25.6667H8.16671C7.54787 25.6667 6.95438 25.4209 6.51679 24.9833C6.07921 24.5457 5.83337 23.9522 5.83337 23.3334V7.00004H22.1667Z" stroke="white" stroke-width="2" stroke-linecap="round" stroke-linejoin="round"/>
<path d="M11.6666 12.8334V19.8334" stroke="white" stroke-width="2" stroke-linecap="round" stroke-linejoin="round"/>
<path d="M16.3334 12.8334V19.8334" stroke="white" stroke-width="2" stroke-linecap="round" stroke-linejoin="round"/>
</svg>
