<svg width="24" height="24" viewBox="0 0 24 24" fill="none" xmlns="http://www.w3.org/2000/svg">
<g opacity="0.5">
<path d="M1.35945 11.3719L9.72195 5.99061C9.83568 5.91811 9.96686 5.87763 10.1017 5.87341C10.2365 5.8692 10.3699 5.90142 10.488 5.96668C10.606 6.03193 10.7043 6.12781 10.7724 6.24421C10.8405 6.36062 10.876 6.49324 10.8751 6.62811V17.3719C10.876 17.5067 10.8405 17.6394 10.7724 17.7558C10.7043 17.8722 10.606 17.968 10.488 18.0333C10.3699 18.0986 10.2365 18.1308 10.1017 18.1266C9.96686 18.1223 9.83568 18.0819 9.72195 18.0094L1.35945 12.6281C1.25289 12.5615 1.16502 12.469 1.10411 12.3591C1.04319 12.2492 1.01123 12.1256 1.01123 12C1.01123 11.8743 1.04319 11.7508 1.10411 11.6409C1.16502 11.531 1.25289 11.4384 1.35945 11.3719V11.3719Z" stroke="white" stroke-width="1.5" stroke-linecap="round" stroke-linejoin="round"/>
<path d="M11.8594 11.3719L20.2219 5.99061C20.3357 5.91811 20.4669 5.87763 20.6017 5.87341C20.7365 5.8692 20.8699 5.90142 20.988 5.96668C21.106 6.03193 21.2043 6.12781 21.2724 6.24421C21.3405 6.36062 21.376 6.49324 21.3751 6.62811V17.3719C21.376 17.5067 21.3405 17.6394 21.2724 17.7558C21.2043 17.8722 21.106 17.968 20.988 18.0333C20.8699 18.0986 20.7365 18.1308 20.6017 18.1266C20.4669 18.1223 20.3357 18.0819 20.2219 18.0094L11.8594 12.6281C11.7529 12.5615 11.665 12.469 11.6041 12.3591C11.5432 12.2492 11.5112 12.1256 11.5112 12C11.5112 11.8743 11.5432 11.7508 11.6041 11.6409C11.665 11.531 11.7529 11.4384 11.8594 11.3719V11.3719Z" stroke="white" stroke-width="1.5" stroke-linecap="round" stroke-linejoin="round"/>
</g>
</svg>
