<svg width="27" height="29" viewBox="0 0 27 29" fill="none" xmlns="http://www.w3.org/2000/svg">
<path d="M2.53125 6.88092H16.0312C16.9264 6.88092 17.7848 7.25983 18.4177 7.93431C19.0507 8.60878 19.4062 9.52356 19.4062 10.4774V21.2669C19.4062 21.5053 19.3174 21.734 19.1591 21.9026C19.0009 22.0713 18.7863 22.166 18.5625 22.166H5.0625C4.16739 22.166 3.30895 21.7871 2.67601 21.1126C2.04308 20.4381 1.6875 19.5233 1.6875 18.5695V7.78004C1.6875 7.54158 1.77639 7.31289 1.93463 7.14427C2.09286 6.97565 2.30747 6.88092 2.53125 6.88092V6.88092Z" stroke="#7B7C83" stroke-width="1.6875" stroke-linecap="round" stroke-linejoin="round"/>
<path d="M19.4062 12.7252L25.3125 9.12872V19.9182L19.4062 16.3217" stroke="#7B7C83" stroke-width="1.6875" stroke-linecap="round" stroke-linejoin="round"/>
</svg>
