<svg width="24" height="24" viewBox="0 0 24 24" fill="none" xmlns="http://www.w3.org/2000/svg">
<g opacity="0.5">
<path d="M22.6406 11.3719L14.2781 5.99061C14.1643 5.91811 14.0331 5.87763 13.8983 5.87341C13.7635 5.8692 13.6301 5.90142 13.512 5.96668C13.394 6.03193 13.2957 6.12781 13.2276 6.24421C13.1595 6.36062 13.124 6.49324 13.1249 6.62811V17.3719C13.124 17.5067 13.1595 17.6394 13.2276 17.7558C13.2957 17.8722 13.394 17.968 13.512 18.0333C13.6301 18.0986 13.7635 18.1308 13.8983 18.1266C14.0331 18.1223 14.1643 18.0819 14.2781 18.0094L22.6406 12.6281C22.7471 12.5615 22.835 12.469 22.8959 12.3591C22.9568 12.2492 22.9888 12.1256 22.9888 12C22.9888 11.8743 22.9568 11.7508 22.8959 11.6409C22.835 11.531 22.7471 11.4384 22.6406 11.3719V11.3719Z" stroke="white" stroke-width="1.5" stroke-linecap="round" stroke-linejoin="round"/>
<path d="M12.1406 11.3719L3.77805 5.99061C3.66432 5.91811 3.53314 5.87763 3.39833 5.87341C3.26352 5.8692 3.13007 5.90142 3.01204 5.96668C2.894 6.03193 2.79575 6.12781 2.72762 6.24421C2.65949 6.36062 2.62402 6.49324 2.62493 6.62811V17.3719C2.62402 17.5067 2.65949 17.6394 2.72762 17.7558C2.79575 17.8722 2.894 17.968 3.01204 18.0333C3.13007 18.0986 3.26352 18.1308 3.39833 18.1266C3.53314 18.1223 3.66432 18.0819 3.77805 18.0094L12.1406 12.6281C12.2471 12.5615 12.335 12.469 12.3959 12.3591C12.4568 12.2492 12.4888 12.1256 12.4888 12C12.4888 11.8743 12.4568 11.7508 12.3959 11.6409C12.335 11.531 12.2471 11.4384 12.1406 11.3719V11.3719Z" stroke="white" stroke-width="1.5" stroke-linecap="round" stroke-linejoin="round"/>
</g>
</svg>
