<svg width="28" height="28" viewBox="0 0 28 28" fill="none" xmlns="http://www.w3.org/2000/svg">
<path d="M7.4375 23.625C9.12887 23.625 10.5 22.2539 10.5 20.5625C10.5 18.8711 9.12887 17.5 7.4375 17.5C5.74613 17.5 4.375 18.8711 4.375 20.5625C4.375 22.2539 5.74613 23.625 7.4375 23.625Z" stroke="#7B7C83" stroke-width="2" stroke-linecap="round" stroke-linejoin="round"/>
<path d="M7.4375 10.5C9.12887 10.5 10.5 9.12887 10.5 7.4375C10.5 5.74613 9.12887 4.375 7.4375 4.375C5.74613 4.375 4.375 5.74613 4.375 7.4375C4.375 9.12887 5.74613 10.5 7.4375 10.5Z" stroke="#7B7C83" stroke-width="2" stroke-linecap="round" stroke-linejoin="round"/>
<path d="M20.5625 18.375C22.2539 18.375 23.625 17.0039 23.625 15.3125C23.625 13.6211 22.2539 12.25 20.5625 12.25C18.8711 12.25 17.5 13.6211 17.5 15.3125C17.5 17.0039 18.8711 18.375 20.5625 18.375Z" stroke="#7B7C83" stroke-width="2" stroke-linecap="round" stroke-linejoin="round"/>
<path d="M17.5 15.75H14.2734C13.5028 15.7515 12.7414 15.5827 12.0437 15.2556C11.346 14.9285 10.7292 14.4512 10.2375 13.8578L7.4375 10.5V17.5" stroke="#7B7C83" stroke-width="2" stroke-linecap="round" stroke-linejoin="round"/>
</svg>
