<svg width="27" height="30" viewBox="0 0 27 30" fill="none" xmlns="http://www.w3.org/2000/svg">
<path d="M2.10938 24.5357H9.70312C10.7878 24.5357 11.8482 24.1929 12.7501 23.5507C13.652 22.9086 14.3549 21.9958 14.77 20.9279C15.1851 19.86 15.2937 18.6849 15.0821 17.5512C14.8705 16.4176 14.3482 15.3762 13.5812 14.5589C12.8142 13.7415 11.8369 13.1849 10.7731 12.9594C9.70921 12.7339 8.60648 12.8496 7.60435 13.292C6.60221 13.7343 5.74566 14.4834 5.14303 15.4445C4.5404 16.4056 4.21875 17.5355 4.21875 18.6914C4.21875 22.7374 2.10938 24.5357 2.10938 24.5357Z" stroke="#8F9095" stroke-width="1.6875" stroke-linecap="round" stroke-linejoin="round"/>
<path d="M11.8547 13.3191C13.8797 10.4082 19.0266 3.74347 23.7305 3.74347C23.7305 8.75607 17.4762 14.2407 14.7446 16.3986" stroke="#8F9095" stroke-width="1.6875" stroke-linecap="round" stroke-linejoin="round"/>
<path d="M14.0273 10.4419C15.4564 11.3013 16.638 12.5605 17.4445 14.0833" stroke="#8F9095" stroke-width="1.6875" stroke-linecap="round" stroke-linejoin="round"/>
</svg>
