<svg width="24" height="24" viewBox="0 0 24 24" fill="none" xmlns="http://www.w3.org/2000/svg">
<path d="M20.25 10.7063L6.00001 2.45628C5.77237 2.32485 5.51418 2.25554 5.25133 2.25531C4.98847 2.25508 4.73017 2.32392 4.50229 2.45495C4.27442 2.58598 4.08498 2.77459 3.95295 3.00188C3.82092 3.22917 3.75093 3.48717 3.75001 3.75003L3.75001 20.25C3.75093 20.5129 3.82092 20.7709 3.95295 20.9982C4.08498 21.2255 4.27442 21.4141 4.50229 21.5451C4.73017 21.6761 4.98847 21.745 5.25133 21.7447C5.51418 21.7445 5.77237 21.6752 6.00001 21.5438L20.25 13.2938C20.4779 13.1633 20.6674 12.975 20.7991 12.7478C20.9309 12.5206 21.0002 12.2626 21.0002 12C21.0002 11.7374 20.9309 11.4794 20.7991 11.2523C20.6674 11.0251 20.4779 10.8367 20.25 10.7063Z" fill="white"/>
</svg>
