<svg width="28" height="34" viewBox="0 0 28 34" fill="none" xmlns="http://www.w3.org/2000/svg">
<g filter="url(#filter0_d_80_136)">
<path d="M11.375 21.4375C11.375 19.7461 10.0039 18.375 8.3125 18.375C6.62113 18.375 5.25 19.7461 5.25 21.4375C5.25 23.1289 6.62113 24.5 8.3125 24.5C10.0039 24.5 11.375 23.1289 11.375 21.4375Z" stroke="#7B7C83" stroke-width="2" stroke-linecap="round" stroke-linejoin="round"/>
<path d="M22.75 21.4375C22.75 19.7461 21.3789 18.375 19.6875 18.375C17.9961 18.375 16.625 19.7461 16.625 21.4375C16.625 23.1289 17.9961 24.5 19.6875 24.5C21.3789 24.5 22.75 23.1289 22.75 21.4375Z" stroke="#7B7C83" stroke-width="2" stroke-linecap="round" stroke-linejoin="round"/>
<path d="M14 13.125L17.9594 18.9109" stroke="#7B7C83" stroke-width="2" stroke-linecap="round" stroke-linejoin="round"/>
<path d="M6.81409 2.62498L11.8781 10.0297" stroke="#7B7C83" stroke-width="2" stroke-linecap="round" stroke-linejoin="round"/>
<path d="M21.186 2.62501L10.0406 18.9109" stroke="#7B7C83" stroke-width="2" stroke-linecap="round" stroke-linejoin="round"/>
</g>
<defs>
<filter id="filter0_d_80_136" x="-4" y="0" width="36" height="36" filterUnits="userSpaceOnUse" color-interpolation-filters="sRGB">
<feFlood flood-opacity="0" result="BackgroundImageFix"/>
<feColorMatrix in="SourceAlpha" type="matrix" values="0 0 0 0 0 0 0 0 0 0 0 0 0 0 0 0 0 0 127 0" result="hardAlpha"/>
<feOffset dy="4"/>
<feGaussianBlur stdDeviation="2"/>
<feComposite in2="hardAlpha" operator="out"/>
<feColorMatrix type="matrix" values="0 0 0 0 0 0 0 0 0 0 0 0 0 0 0 0 0 0 0.25 0"/>
<feBlend mode="normal" in2="BackgroundImageFix" result="effect1_dropShadow_80_136"/>
<feBlend mode="normal" in="SourceGraphic" in2="effect1_dropShadow_80_136" result="shape"/>
</filter>
</defs>
</svg>
