<svg width="27" height="30" viewBox="0 0 27 30" fill="none" xmlns="http://www.w3.org/2000/svg">
<path d="M15.6094 15.3359L4.21875 15.3359" stroke="#7B7C83" stroke-width="1.6875" stroke-linecap="round" stroke-linejoin="round"/>
<path d="M22.7812 15.3359L19.8281 15.3359" stroke="#7B7C83" stroke-width="1.6875" stroke-linecap="round" stroke-linejoin="round"/>
<path d="M15.6094 15.3359C15.6094 16.5774 16.5538 17.5837 17.7187 17.5837C18.8837 17.5837 19.8281 16.5774 19.8281 15.3359C19.8281 14.0945 18.8837 13.0881 17.7188 13.0881C16.5538 13.0881 15.6094 14.0945 15.6094 15.3359Z" stroke="#7B7C83" stroke-width="1.6875" stroke-linecap="round" stroke-linejoin="round"/>
<path d="M7.17188 23.428L4.21875 23.428" stroke="#7B7C83" stroke-width="1.6875" stroke-linecap="round" stroke-linejoin="round"/>
<path d="M22.7812 23.428L11.3906 23.428" stroke="#7B7C83" stroke-width="1.6875" stroke-linecap="round" stroke-linejoin="round"/>
<path d="M7.17187 23.428C7.17187 24.6695 8.11627 25.6758 9.28125 25.6758C10.4462 25.6758 11.3906 24.6695 11.3906 23.428C11.3906 22.1866 10.4462 21.1802 9.28125 21.1802C8.11627 21.1802 7.17187 22.1866 7.17187 23.428Z" stroke="#7B7C83" stroke-width="1.6875" stroke-linecap="round" stroke-linejoin="round"/>
<path d="M10.5469 7.24387L4.21875 7.24387" stroke="#7B7C83" stroke-width="1.6875" stroke-linecap="round" stroke-linejoin="round"/>
<path d="M22.7812 7.24387L14.7656 7.24387" stroke="#7B7C83" stroke-width="1.6875" stroke-linecap="round" stroke-linejoin="round"/>
<path d="M10.5469 7.24387C10.5469 8.48529 11.4913 9.49167 12.6562 9.49167C13.8212 9.49167 14.7656 8.48529 14.7656 7.24387C14.7656 6.00244 13.8212 4.99606 12.6562 4.99606C11.4913 4.99606 10.5469 6.00244 10.5469 7.24387Z" stroke="#7B7C83" stroke-width="1.6875" stroke-linecap="round" stroke-linejoin="round"/>
</svg>
